<?xml version="1.0" encoding="utf-8"?>
<!-- Generator: Adobe Illustrator 22.0.1, SVG Export Plug-In . SVG Version: 6.00 Build 0)  -->
<svg version="1.1" id="Layer_1" xmlns="http://www.w3.org/2000/svg" xmlns:xlink="http://www.w3.org/1999/xlink" x="0px" y="0px"
	 viewBox="0 0 1280 1024" style="enable-background:new 0 0 1280 1024;" xml:space="preserve">
<style type="text/css">
	.st0{fill:#FBB03B;}
	.st1{fill:#11C3CC;stroke:#0F8282;stroke-width:25;stroke-miterlimit:10;}
	.st2{fill:#FBB03B;stroke:#CC8A33;stroke-width:26;stroke-miterlimit:10;}
	.st3{fill:#F4F4F4;}
	.st4{fill:#0F8282;}
	.st5{fill:#F4F4F4;stroke:#0F8282;stroke-width:20;stroke-miterlimit:10;}
	.st6{fill:none;}
</style>
<g>
	<ellipse class="st0" cx="639.9" cy="515" rx="375.1" ry="371"/>
	<circle class="st1" cx="639.9" cy="515" r="273.5"/>
	<path class="st2" d="M343,447.2c0,0,210.8,185.7,427,85.2c0,0,22.4,113.9,44.9,114.8C814.9,647.3,516.1,731.6,343,447.2z"/>
	<g>
		<path class="st3" d="M751,533.5l0.5-3.4c1-6.5,7-39.8,22.8-53.1l0.4-0.3l0.4-0.3c4-2.9,39.8-28.4,66.3-28.4c3.1,0,6,0.3,8.7,1
			c3,0,7.4,0.5,11.6,2.4c9.2-9.1,22.2-20.8,31.6-25.2c2.2-1,4.6-1.5,7.2-1.5c16.3,0,47.7,23.7,68.5,51.8
			c16.7,22.5,34.1,57.4,22.5,95.7c-9.9,32.6-43,59.4-98.3,79.7c-39.5,14.5-75.7,20.3-77.3,20.5l-9.9,1.5L751,533.5z"/>
		<path class="st4" d="M900.4,437.2c18.2,0,99.1,65.2,79,131.4c-21,69-165.5,91.5-165.5,91.5l-50-128c0,0,5.5-34.5,18.5-45.5
			c0,0,35.8-26,58.9-26c2.5,0,4.9,0.3,7.1,1c0,0,0.4,0,1,0c3.2,0,12.6,0.7,11,9c0,0,25-27,38-33
			C898.9,437.3,899.6,437.2,900.4,437.2 M900.4,412.2c-4.4,0-8.6,0.9-12.5,2.7c-9.2,4.2-20.5,13.7-29.8,22.5
			c-2.1-0.4-4.3-0.7-6.6-0.8c-3.3-0.7-6.7-1-10.2-1c-14.1,0-30.5,5.3-50.2,16.1c-13.1,7.2-23,14.4-23.4,14.7l-0.7,0.5l-0.7,0.6
			c-9.3,7.9-16.4,20.5-21.9,38.8c-3.4,11.3-5,20.8-5.1,21.9l-1.1,6.7l2.5,6.3l50,128l7.3,18.7l19.8-3.1c1.6-0.2,39-6.2,79.7-21.1
			c59.2-21.8,94.8-51.3,105.9-87.8c5.7-18.9,5.7-38.7-0.1-58.9c-4.6-16.2-12.8-32.3-24.3-47.8c-10.7-14.4-24.3-28.2-38.2-38.8
			C916.9,412.2,904.5,412.2,900.4,412.2L900.4,412.2z"/>
	</g>
	<path class="st5" d="M681.4,547.6c0,0,62-17,76-28c0,0,36,125,61,154c0,0-44,10-84,8C734.4,681.6,690.4,608.6,681.4,547.6z"/>
	<circle class="st4" cx="758" cy="651" r="11.6"/>
</g>
<rect x="278.9" y="150.2" class="st6" width="735.8" height="735.8"/>
</svg>
